<?xml version="1.0" encoding="utf-8"?>
<!-- Generator: Adobe Illustrator 22.1.0, SVG Export Plug-In . SVG Version: 6.00 Build 0)  -->
<svg version="1.1" id="Layer_1" xmlns="http://www.w3.org/2000/svg" xmlns:xlink="http://www.w3.org/1999/xlink" x="0px" y="0px"
	 viewBox="0 0 64 64" style="enable-background:new 0 0 64 64;" xml:space="preserve">
<g>
	<g>
		<path d="M0,53.8c1.4-2.8,2.8-5.6,4.1-8.4c1.9-3.9,3.8-7.8,5.7-11.7c0.3-0.7,0.8-1,1.6-1c2.5,0,5,0,7.6,0c0.6,0,1.1,0.2,1.5,0.7
			c1,1.1,2,2.3,3.1,3.5c-0.4,0-0.6,0-0.8,0c-3,0-5.9,0-8.9,0c-0.7,0-1.1,0.2-1.4,0.8c-2.1,4.3-4.1,8.5-6.2,12.8
			c-0.1,0.1-0.1,0.2-0.1,0.4c17.2,0,34.4,0,51.7,0c-0.1-0.2-0.2-0.4-0.3-0.6c-2-4.1-4-8.2-6-12.3c-0.4-0.8-0.9-1.1-1.8-1.1
			c-3.1,0-6.2,0-9.4,0c0-0.1,0.1-0.2,0.1-0.2c1-1.2,2-2.3,3.1-3.4c0.3-0.3,0.8-0.5,1.2-0.5c2.6,0,5.3,0,7.9,0c0.7,0,1.1,0.3,1.4,0.9
			c3.2,6.6,6.4,13.2,9.7,19.8c0,0.1,0.1,0.2,0.2,0.3c0,0.2,0,0.5,0,0.8c-0.4,0.6-1,0.5-1.6,0.5c-16.1,0-32.2,0-48.2,0
			c-4.2,0-8.4,0-12.6,0c-0.6,0-1.1,0-1.5-0.5C0,54.3,0,54.1,0,53.8z"/>
		<path d="M32,5.1c6.2-0.2,12.2,4.3,13.8,10.4c1.4,5.1,0.4,9.7-2.7,13.8c-1.3,1.8-2.9,3.4-4.3,5.1c-2.4,2.6-4.4,5.5-5.8,8.7
			C32.8,43.6,32.5,44,32,44c-0.5,0-0.8-0.3-1-0.8c-1.6-3.8-4.1-6.9-6.8-9.9c-1.7-1.9-3.4-3.8-4.7-6c-2.9-5.1-2.4-12,1.2-16.6
			c2.5-3.2,5.8-5.1,9.8-5.5C31,5.1,31.5,5.1,32,5.1z M24.4,19.5c0,4.2,3.4,7.7,7.6,7.7c4.2,0,7.6-3.4,7.7-7.6c0-4.3-3.4-7.7-7.6-7.7
			C27.8,11.9,24.4,15.3,24.4,19.5z"/>
	</g>
</g>
</svg>
