<?xml version="1.0" encoding="utf-8"?>
<svg version="1.1" id="Layer_1" xmlns="http://www.w3.org/2000/svg" xmlns:xlink="http://www.w3.org/1999/xlink" x="0px" y="0px"
	 viewBox="0 0 64 64" style="enable-background:new 0 0 64 64;" xml:space="preserve">
<path d="M49.4,27.7H37c-0.4,0-0.7-0.3-0.7-0.7V14.6c0-0.4-0.3-0.7-0.7-0.7h-7.1c-0.4,0-0.7,0.3-0.7,0.7V27c0,0.4-0.3,0.7-0.7,0.7
	H14.6c-0.4,0-0.7,0.3-0.7,0.7v7.1c0,0.4,0.3,0.7,0.7,0.7H27c0.4,0,0.7,0.3,0.7,0.7v12.5c0,0.4,0.3,0.7,0.7,0.7h7.1
	c0.4,0,0.7-0.3,0.7-0.7V37c0-0.4,0.3-0.7,0.7-0.7h12.5c0.4,0,0.7-0.3,0.7-0.7v-7.1C50.2,28.1,49.8,27.7,49.4,27.7z"/>
<g>
	<g>
		<polygon points="64.1,63.8 56.6,63.8 56.6,60.8 61.1,60.8 61.1,56.3 64.1,56.3 		"/>
	</g>
	<g>
		<path d="M46.7,63.8h-9.8v-3h9.8V63.8z M27.1,63.8h-9.8v-3h9.8V63.8z"/>
	</g>
	<g>
		<polygon points="7.4,63.8 -0.1,63.8 -0.1,56.3 2.9,56.3 2.9,60.8 7.4,60.8 		"/>
	</g>
	<g>
		<path d="M2.9,46.6h-3v-9.7h3V46.6z M2.9,27.1h-3v-9.7h3V27.1z"/>
	</g>
	<g>
		<polygon points="2.9,7.7 -0.1,7.7 -0.1,0.2 7.4,0.2 7.4,3.2 2.9,3.2 		"/>
	</g>
	<g>
		<path d="M46.7,3.2h-9.8v-3h9.8V3.2z M27.1,3.2h-9.8v-3h9.8V3.2z"/>
	</g>
	<g>
		<polygon points="64.1,7.7 61.1,7.7 61.1,3.2 56.6,3.2 56.6,0.2 64.1,0.2 		"/>
	</g>
	<g>
		<path d="M64.1,46.6h-3v-9.7h3V46.6z M64.1,27.1h-3v-9.7h3V27.1z"/>
	</g>
</g>
</svg>