<svg id="Layer_1" data-name="Layer 1" xmlns="http://www.w3.org/2000/svg" viewBox="0 0 34.63 35.74"><defs><style>.cls-1{fill:#231f20;}</style></defs><title>result-forms</title><path class="cls-1" d="M10.28,26.54A13.86,13.86,0,0,1,29.16,13.59V5a2.43,2.43,0,0,0-2.43-2.43h-23A2.43,2.43,0,0,0,1.26,5V32.09a2.43,2.43,0,0,0,2.43,2.43h9.13A13.77,13.77,0,0,1,10.28,26.54Z" transform="translate(-1.26 -2.52)"/><path d="M32.45,18.25a11.72,11.72,0,1,0,0,16.58A11.68,11.68,0,0,0,32.45,18.25ZM31.16,33.53a9.89,9.89,0,1,1,0-14A9.82,9.82,0,0,1,31.16,33.53Z" transform="translate(-1.26 -2.52)"/><polygon points="21.31 24.59 18.89 21.96 16.21 24.63 16.21 24.63 21.25 29.67 29.76 21.16 27.82 19.18 21.31 24.59"/></svg>