<?xml version="1.0" encoding="utf-8"?>
<!-- Generator: Adobe Illustrator 22.1.0, SVG Export Plug-In . SVG Version: 6.00 Build 0)  -->
<svg version="1.1" id="Layer_1" xmlns="http://www.w3.org/2000/svg" xmlns:xlink="http://www.w3.org/1999/xlink" x="0px" y="0px"
	 viewBox="0 0 59.6 47.9" style="enable-background:new 0 0 59.6 47.9;" xml:space="preserve">
<style type="text/css">
	.st0{fill:#010101;}
</style>
<path class="st0" d="M35.5,46.6c-0.3,0-0.6-0.1-0.9-0.4L22.6,34.1c-0.2-0.2-0.4-0.5-0.4-0.9s0.1-0.6,0.4-0.9l2.6-2.6
	c0.2-0.2,0.5-0.4,0.9-0.4c0.3,0,0.6,0.1,0.9,0.4l8.6,8.6l18-18c0.2-0.2,0.5-0.4,0.9-0.4s0.6,0.1,0.9,0.4l2.6,2.6
	c0.5,0.5,0.5,1.3,0,1.7L36.4,46.2C36.2,46.5,35.9,46.6,35.5,46.6z"/>
<path class="st0" d="M30,27.3h2.9c0.6,0,1.1,0.2,1.5,0.6c0.4,0.4,0.6,0.9,0.6,1.5v2.9L30,27.3z"/>
<path class="st0" d="M3.6,44.4c-0.6,0-1.1-0.2-1.5-0.6c-0.4-0.4-0.6-0.9-0.6-1.5V3.7c0-0.6,0.2-1.1,0.6-1.5C2.5,1.8,3,1.5,3.6,1.5
	h24.7c0.7,0,1.4,0.2,2.3,0.5c0.8,0.3,1.5,0.8,2,1.2l8.1,8.1c0.5,0.5,0.9,1.1,1.2,2c0.4,0.9,0.5,1.6,0.5,2.3V26L40,28.4V15.6
	c0-0.4-0.1-0.8-0.3-1.4c-0.2-0.5-0.5-0.9-0.7-1.2L30.9,5c-0.3-0.3-0.6-0.5-1.2-0.7c-0.6-0.2-1-0.3-1.4-0.3h-0.6v12.6
	c0,0.6-0.2,1.1-0.6,1.5c-0.4,0.4-0.9,0.6-1.5,0.6H11c-0.6,0-1.1-0.2-1.5-0.6c-0.4-0.4-0.6-0.9-0.6-1.5V3.9h-5V42h5V29.4
	c0-0.6,0.2-1.1,0.6-1.5c0.4-0.4,0.9-0.6,1.5-0.6h11.1l-2.3,2.3c0,0-0.1,0.1-0.1,0.1h-8.4V42H25l2.4,2.4H3.6z M18.2,3.9
	c-0.4,0-0.8,0.2-1.1,0.5c-0.3,0.3-0.5,0.7-0.5,1.1v9.2c0,0.4,0.2,0.8,0.5,1.1s0.7,0.5,1.1,0.5h5.5c0.4,0,0.8-0.2,1.1-0.5
	c0.3-0.3,0.5-0.7,0.5-1.1V5.5c0-0.4-0.2-0.8-0.5-1.1c-0.3-0.3-0.7-0.5-1.1-0.5H18.2z"/>
</svg>
