<svg id="Layer_1" data-name="Layer 1" xmlns="http://www.w3.org/2000/svg" viewBox="0 0 32.2 35.95"><defs><style>.cls-1{fill:#383838;}</style></defs><title>search-forms</title><path class="cls-1" d="M8.3,29.9A12.88,12.88,0,1,1,26.42,11.59a12.53,12.53,0,0,1,2.78,4.24V3.29A2.43,2.43,0,0,0,26.77.86h-23A2.43,2.43,0,0,0,1.29,3.29V30.43a2.43,2.43,0,0,0,2.43,2.43h9.42A12.73,12.73,0,0,1,8.3,29.9Z" transform="translate(-1.29 -0.86)"/><path class="cls-1" d="M24.38,13.62a10,10,0,0,0-14.25.06,10.14,10.14,0,0,0,.18,14.16A10,10,0,0,0,22,29.49L28.59,36a2.87,2.87,0,0,0,4.06,0h0a2.87,2.87,0,0,0,0-4.06l-6.58-6.47A10,10,0,0,0,24.38,13.62ZM21.59,25a6.11,6.11,0,1,1,0-8.64A6.1,6.1,0,0,1,21.59,25Z" transform="translate(-1.29 -0.86)"/></svg>