<?xml version="1.0" encoding="UTF-8" standalone="no"?>
<!-- Created with Inkscape (http://www.inkscape.org/) -->

<svg xmlns:dc="http://purl.org/dc/elements/1.1/" xmlns:cc="http://creativecommons.org/ns#" xmlns:rdf="http://www.w3.org/1999/02/22-rdf-syntax-ns#" xmlns:svg="http://www.w3.org/2000/svg" xmlns="http://www.w3.org/2000/svg" xmlns:xlink="http://www.w3.org/1999/xlink" version="1.1" width="134.79858" height="134.39081" viewBox="0 0 134.79859 134.3908" id="Layer_1" style="overflow:visible">
    <metadata id="metadata3">
        <rdf:RDF>
            <cc:Work rdf:about="">
                <dc:title></dc:title>
                <dc:description />
                <dc:subject>
                    <rdf:Bag>
                        <rdf:li>unsorted</rdf:li>
                    </rdf:Bag>
                </dc:subject>
                <dc:publisher>
                    <cc:Agent rdf:about="http://www.openclipart.org/">
                        <dc:title>Open Clip Art Library</dc:title>
                    </cc:Agent>
                </dc:publisher>
                <dc:creator>
                    <cc:Agent>
                        <dc:title>Architetto Francesco Rollandin</dc:title>
                    </cc:Agent>
                </dc:creator>
                <dc:rights>
                    <cc:Agent>
                        <dc:title>Architetto Francesco Rollandin</dc:title>
                    </cc:Agent>
                </dc:rights>
                <dc:date />
                <dc:format>image/svg+xml</dc:format>
                <dc:type rdf:resource="http://purl.org/dc/dcmitype/StillImage" />
                <cc:license rdf:resource="http://web.resource.org/cc/PublicDomain" />
                <dc:language>en</dc:language>
            </cc:Work>
            <cc:License rdf:about="http://web.resource.org/cc/PublicDomain">
                <cc:permits rdf:resource="http://web.resource.org/cc/Reproduction" />
                <cc:permits rdf:resource="http://web.resource.org/cc/Distribution" />
                <cc:permits rdf:resource="http://web.resource.org/cc/DerivativeWorks" />
            </cc:License>
        </rdf:RDF>
    </metadata>
    <defs id="defs39">
        <radialGradient cx="52.408199" cy="36.194801" r="105.1645" id="XMLID_2_" gradientUnits="userSpaceOnUse">
            <stop id="stop8" style="stop-color:#d1f593;stop-opacity:1" offset="0" />
            <stop id="stop10" style="stop-color:#81ce09;stop-opacity:1" offset="1" />
        </radialGradient>
        <radialGradient cx="52.408199" cy="36.194801" r="105.1645" id="radialGradient3016" xlink:href="#XMLID_2_" gradientUnits="userSpaceOnUse" gradientTransform="matrix(0.96593585,0,0,0.96593585,1.4801253,1.4912916)" />
    </defs>
    <path d="m 76.249235,0.01880633 c -3.794858,-0.11197153 -7.62435,0.3125 -10.25,0.3125 -3.22474,0 -7.71617,-0.49257353 -11.8125,0.21875 -2.048165,0.3556618 -4.03868,1.04557427 -5.6875,2.34374997 -1.64882,1.2981757 -2.884209,3.2107475 -3.40625,5.75 -1.257346,6.1144747 -0.21875,12.9728897 -0.21875,18.5937497 l 0,17.65625 c -8.033149,-0.0057 -16.061413,-9.09e-4 -24.09375,0 -3.753442,0 -8.579017,-0.417868 -12.7500005,0.71875 -2.0854917,0.568309 -4.0754084,1.581961 -5.5,3.3125 -1.4245916,1.730539 -2.21874996,4.121253 -2.21874996,7.15625 0,7.458885 -0.72179358,15.466058 0.03125,23.1875 l -0.03125,0 c 0,0.05868 0.030481,0.09804 0.03125,0.15625 0.041293,3.12591 1.17075726,5.601461 2.99999996,7.21875 1.8633084,1.647408 4.2715821,2.454966 6.8125005,2.875 5.081836,0.840068 10.882376,0.15625 14.40625,0.15625 1.504869,0 6.79713,-0.27202 11.875,-0.28125 2.538935,-0.0046 5.01099,0.04385 6.75,0.21875 0.770379,0.07748 1.30949,0.213818 1.6875,0.3125 l 0,27.281254 c 0,4.40607 0.267054,8.50631 2.15625,11.75 1.889196,3.24369 5.540106,5.28125 11.09375,5.28125 l 14.125,0 c 3.589873,0.002 8.791103,0.91748 12.78125,-1.75 3.873528,-2.59068 4.836968,-7.51256 5.03125,-12.3125 0.194282,-4.79994 -0.40625,-9.77974 -0.40625,-12.84375 l 0,-14.562504 c 0,-1.586052 -0.173847,-2.706328 -0.15625,-3 0.05547,-0.01555 0.235335,-0.09375 0.8125,-0.09375 l 28.874995,0 c 3.12297,0 7.0391,0.547528 10.4375,-1.75 2.4825,-1.677797 3.68801,-4.0393 4.1875,-6.40625 0.49949,-2.36695 0.40625,-4.784318 0.40625,-7 0,-3.254831 0.70094,-8.846779 0.5625,-14.21875 -0.13844,-5.371971 -1.04906,-10.84779 -5.15625,-13.625 -3.39322,-2.297479 -7.30987,-1.78125 -10.4375,-1.78125 l -15.875,0 -12.999995,0 c -0.577099,0 -0.757061,-0.0782 -0.8125,-0.09375 -0.01763,-0.293867 0.15625,-1.414356 0.15625,-3 l 0,-28.875 C 89.654499,9.7349813 89.421052,6.1894944 86.624235,3.3938063 83.978354,0.74850983 80.046604,0.13085197 76.249235,0.01880633 z M 57.155485,5.0813063 c 1.694682,-0.00561 3.512966,0.15625 5.125,0.15625 4.983067,0.00193 9.956554,0 14.9375,0 2.356485,0 3.851836,0.4896813 4.875,1.21875 1.023164,0.7290687 1.670826,1.7321767 2.09375,3.09375 0.845847,2.7231467 0.59375,6.7294697 0.59375,10.5624997 l 0,27.25 c 0,0.904259 0.707497,1.572767 1.21875,1.84375 0.511253,0.270983 1.005839,0.393775 1.59375,0.5 1.175821,0.21245 2.671769,0.284016 4.46875,0.3125 3.593962,0.05697 8.345665,-0.124608 13.249995,-0.28125 4.90433,-0.156642 9.96918,-0.295999 14.0625,-0.125 2.04666,0.0855 3.85631,0.247882 5.25,0.5 1.39369,0.252118 2.35894,0.661463 2.625,0.875 2.00461,1.610018 2.84364,6.087953 2.8125,11.0625 -0.0311,4.974547 -0.75,10.18989 -0.75,13.46875 0,1.961359 0.0467,3.858372 -0.34375,5.34375 -0.39044,1.485378 -1.051,2.539981 -2.75,3.375 -1.93299,0.949277 -5.54149,0.5625 -8.53125,0.5625 l -28.749995,0 c -0.85464,0 -1.328526,-0.263176 -2.4375,0 -0.554487,0.131588 -1.239771,0.712876 -1.46875,1.28125 -0.228979,0.568374 -0.25,1.03915 -0.25,1.625 l 0,12.812504 c 0,7.68521 0.948264,15.84253 0.03125,23.09375 a 1.4910922,1.4910922 0 0 0 -0.03125,0.1875 c 0,2.12708 -0.781015,3.24862 -2.3125,4.1875 -1.531485,0.93888 -3.903214,1.49529 -6.53125,1.71875 -5.256072,0.44692 -11.392787,-0.375 -14.8125,-0.375 -2.202978,-0.001 -4.486705,0.19924 -6.375,-0.0937 -1.888295,-0.29299 -3.273891,-0.91337 -4.28125,-2.65625 -1.114076,-1.92872 -0.6875,-5.73873 -0.6875,-8.875 l 0,-30.000004 c 1.19e-4,-0.832083 -0.436571,-1.689806 -1.03125,-2.1875 -0.594679,-0.497744 -1.290728,-0.755695 -2.03125,-0.93755 -1.481044,-0.363709 -3.292231,-0.394546 -5.4375,-0.34375 -4.290538,0.101592 -9.852074,0.703287 -15.375,1.03125 -5.522926,0.327963 -10.999719,0.354287 -14.875,-0.5625 -1.9376411,-0.458393 -3.4628003,-1.167607 -4.4062505,-2.03125 -0.9434502,-0.863643 -1.4075277,-1.835935 -1.40625,-3.40625 l 0,-23.1875 c 0,-2.200525 0.5939171,-3.466595 1.53125,-4.375 0.9373329,-0.908405 2.3392262,-1.496042 4.0937505,-1.8125 3.509048,-0.632917 8.123237,-0.09375 11.625,-0.09375 l 25.5625,0 c 0.60966,0 1.02385,-0.389048 1.1875,-0.59375 0.16365,-0.204702 0.210825,-0.336185 0.25,-0.4375 0.07835,-0.20263 0.103547,-0.287251 0.125,-0.40625 0.04291,-0.237999 0.04029,-0.493217 0.0625,-0.78125 0.04443,-0.576066 0.101409,-1.329525 0.125,-2.25 0.04718,-1.840951 0.06204,-4.286797 0.0625,-6.78125 9.24e-4,-4.988906 -0.0625,-10.230615 -0.0625,-10.96875 0,-3.095929 -0.657591,-7.953878 -0.5,-12.4375 0.07879,-2.241811 0.376199,-4.361932 0.96875,-5.9999997 0.592551,-1.6380676 1.406544,-2.7445625 2.625,-3.34375 1.062912,-0.5227138 2.587702,-0.7131467 4.28125,-0.71875 z" id="path3795" style="fill:#000000;fill-opacity:1" />
    <path d="m 51.729075,128.80744 c 0,2.51626 27.679858,1.33492 30.525505,0.78917 4.721494,-0.90315 -8.773596,-3.01566 -9.922093,-3.06782 -1.843972,-0.0821 -20.60631,-0.8732 -20.603412,2.27865" id="path5" style="fill:#67ba06" />
    <path d="m 87.215626,123.81258 c 0,-7.81538 0,-15.6327 0,-23.44712 0,-3.898526 0,-7.796077 0,-11.692662 0,-2.26995 1.306911,-1.431517 3.476403,-1.431517 9.592701,0 19.187341,0 28.781991,-0.0019 2.95479,0 6.19164,0.385408 8.77939,-1.361004 3.99028,-2.695927 3.516,-7.196222 3.516,-11.364235 0,-6.442792 2.86014,-21.4998 -3.5189,-25.80884 -5.57442,-3.765218 -17.83794,-1.362936 -24.0518,-1.362936 -2.83309,0 -16.980186,1.732889 -16.980186,-1.432483 0,-9.297132 0,-18.593299 -0.0019,-27.889465 0,-7.677259 -0.02222,-15.2308767 -9.99647,-15.2308767 -4.579502,0 -9.159004,0 -13.741403,0 -3.393333,0 -8.048178,-0.7428046 -11.285995,0.6278583 -7.457991,3.1547465 -4.875078,16.7358044 -4.875078,23.0346724 0,1.653682 0.262734,20.890294 -0.240518,20.890294 -8.557226,0 -17.113486,0 -25.670711,0 -6.788598,0 -18.6435288,-1.873915 -18.641597,8.328299 0,7.83374 9.66e-4,15.668446 9.66e-4,23.502186 0,10.270795 13.201446,8.069428 19.85771,8.069428 2.001419,0 24.69415,-0.257905 24.69415,0.241484 0,9.694132 9.66e-4,19.387297 9.66e-4,29.080467 0,3.13736 -0.636552,7.36623 0.625926,10.3558 2.206198,5.22088 7.433843,4.87411 12.099313,4.87411 7.110254,-0.002 27.176605,3.60294 27.171775,-7.98153" id="path12" style="fill:url(#radialGradient3016)" />
    <path d="m 8.4850922,52.10633 c 2.5172288,0 1.3368553,27.679858 0.7911013,30.526471 C 8.3701458,87.355261 6.25861,73.859205 6.2064495,72.711674 6.1243449,70.869634 5.3351753,52.103432 8.4850922,52.10633" id="path14" style="fill:#b2ed21" />
    <path d="m 128.42727,52.10633 c 2.51627,0 1.33783,27.679858 0.79304,30.526471 -0.90605,4.72246 -3.01952,-8.773596 -3.07168,-9.921127 -0.0821,-1.84204 -0.86837,-20.608242 2.27864,-20.605344" id="path16" style="fill:#b2ed21" />
    <path d="m 52.213975,83.100314 c 2.571321,0.0029 1.29049,39.844856 0.777578,43.518316 -0.342907,2.44285 -1.242193,2.1946 -1.758969,-0.0493 -1.179408,-5.12042 -1.223841,-10.6166 -1.342651,-15.84135 -0.04926,-2.12216 -0.761157,-27.630594 2.324042,-27.627696" id="path18" style="fill:#67ba06" />
    <path d="m 89.104997,52.362303 c 0,2.56456 34.651973,1.245091 37.830873,0.855819 1.50686,-0.18546 3.4397,-0.949515 0.94372,-1.714536 -4.33609,-1.32623 -9.28458,-1.313673 -13.76845,-1.448904 -2.02074,-0.06085 -25.006143,-0.819113 -25.006143,2.307621" id="path20" style="fill:#b2ed21" />
    <path d="m 8.4850922,52.10633 c 0.0029,-2.174322 41.1662548,-1.737719 41.1681868,9.66e-4 0,1.859426 -41.1623912,5.388956 -41.1681868,-9.66e-4" id="path22" style="fill:#b2ed21" />
    <path d="m 51.729075,8.8642799 c 0,2.5172281 27.679858,1.3349231 30.525505,0.7901354 C 86.975108,8.7512654 73.480984,6.6377978 72.331521,6.5856372 70.488515,6.5035327 51.726177,5.7133972 51.729075,8.8642799" id="path24" style="fill:#b2ed21" />
    <path d="m 51.729075,8.8642799 c -2.171424,0 -1.742548,40.8610181 -9.66e-4,40.8610181 1.893234,9.66e-4 5.369637,-40.8610181 9.66e-4,-40.8610181" id="path26" style="fill:#b2ed21" />
    <path d="m 83.387622,7.9350496 c -2.175287,0 -1.219011,23.4220124 -1.209351,25.3413264 0.01739,3.582657 -0.424046,7.883003 0.663598,11.364236 0.838432,2.685301 2.177219,-4.357337 2.228414,-4.754337 0.410522,-3.222362 3.222362,-31.957021 -1.682661,-31.9512254" id="path28" style="fill:#b2ed21" />
    <path d="m 83.386657,84.364724 c -1.881643,-0.0048 -1.213216,22.319886 -1.213216,24.258516 0,5.5522 -0.257905,11.20872 0.315861,16.7416 0.316827,3.06685 1.416062,3.346 2.097047,0.20381 0.678087,-3.11804 3.450323,-41.214552 -1.199692,-41.203926" id="path30" style="fill:#67ba06" />
    <path d="m 8.9197633,82.402908 c -0.0029,-2.169492 23.4239447,-1.219011 25.3403617,-1.20742 3.584588,0.01739 7.883968,-0.424046 11.364235,0.661666 2.687234,0.838433 -4.358302,2.179152 -4.752404,2.22938 -3.22043,0.409557 -31.962818,3.215601 -31.9521927,-1.683626" id="path32" style="fill:#67ba06" />
    <path d="m 85.516545,82.406772 c -0.0019,-1.90386 21.462125,-1.218045 23.306095,-1.218045 5.55123,0 11.20775,-0.254041 16.7416,0.318758 3.06492,0.316827 3.34697,1.415097 0.20478,2.098013 -3.12674,0.679053 -40.252475,3.52953 -40.252475,-1.198726" id="path34" style="fill:#67ba06" />
    <path d="m 77.0625,2.34375 c -3.650151,-0.1077018 -7.44265,0.3125 -10.21875,0.3125 -6.724845,0 -17.589665,-1.86303311 -19.4375,7.125 -1.177476,5.726068 -0.1875,12.490465 -0.1875,18.28125 l 0,19.15625 c -8.532112,-0.0077 -17.060673,-9.66e-4 -25.59375,0 -7.69368,0 -18.96875,-1.445877 -18.96875,9.6875 0,7.60771 -0.7582596,15.620358 0,23.1875 0,11.513955 15.351898,8.90625 22.75,8.90625 2.612857,0 21.8125,-1.043294 21.8125,0.96875 l 0,28.0625 c 0,8.66348 1.295676,15.53125 11.75,15.53125 l 14.125,0 c 3.775843,0.002 8.630136,0.71103 11.9375,-1.5 C 91.471145,127.75539 89,114.66183 89,108.15625 l 0,-14.5625 C 89,90.588723 87.996673,89 91.15625,89 l 28.875,0 c 3.2523,0 6.74907,0.423179 9.59375,-1.5 4.31194,-2.914228 3.9375,-7.642432 3.9375,-12.15625 0,-6.92093 2.86365,-21.994929 -3.9375,-26.59375 -2.84468,-1.926076 -6.34531,-1.53125 -9.59375,-1.53125 l -15.875,0 -13,0 C 87.996673,47.21875 89,45.62906 89,42.625 L 89,13.75 C 88.999034,10.623265 88.798873,7.6729071 86.40625,5.28125 84.22082,3.0963031 80.712651,2.4514518 77.0625,2.34375 z M 58,4.40625 c 1.788189,-0.00592 3.620072,0.15625 5.125,0.15625 4.982298,0.00193 9.956169,0 14.9375,0 10.283353,0 9.0625,8.870644 9.0625,16.375 l 0,27.25 c 0,3.249408 36.67571,-1.729207 41.90625,2.46875 5.50583,4.422054 2.625,19.600172 2.625,25.6875 0,3.871471 0.19961,8.029205 -3.9375,10.0625 -2.60223,1.277934 -6.39691,0.71875 -9.1875,0.71875 l -28.75,0 c -2.016874,0 -2.65625,-0.624148 -2.65625,1.40625 l 0,12.8125 c 0,7.56038 0.949515,15.77303 0,23.28125 0,10.32199 -18.8342,7.03125 -25.15625,7.03125 -4.207617,-0.002 -9.431863,0.83512 -11.9375,-3.5 -1.531009,-2.65053 -0.90625,-6.70111 -0.90625,-9.625 l 0,-30 c 9.66e-4,-6.735471 -44.5750572,6.995257 -44.5625,-8.4375 0,-7.726521 0,-15.460979 0,-23.1875 0,-10.002266 12.077316,-7.78125 18.75,-7.78125 l 25.5625,0 c 0.492627,0 0.25,-19.094046 0.25,-20.71875 0,-5.736693 -2.627,-19.8968424 3.9375,-23.125 C 54.471801,4.588191 56.211811,4.4121664 58,4.40625 z" transform="translate(-0.84451546,-0.82494367)" id="path3791" style="fill:#507323;fill-opacity:1" />
</svg>
