<?xml version="1.0" encoding="UTF-8" standalone="no"?>
<svg xmlns:svg="http://www.w3.org/2000/svg" xmlns="http://www.w3.org/2000/svg" version="1.0" width="180" height="185" id="svg2">
<path d="M 164.07,82.2 C 170.8,130.13 140.4,174 96.2,180.3 C 51.9,186.5 10.6,152.7 3.93,104.79 C -2.79,56.87 27.6,12.98 71.843612,6.7 C 116.1,0.5 157.4,34.3 164,82.21 L 164.07,82.2 z"
style="fill-opacity:0.2" id="1" />
<path d="M 176.07,80.2 C 182.8,128 152.4,172.03 108.16,178.26 C 63.9,184.5 22.6,150.7 15.9,102.79 C 9.22,54.9 39.6,10.9 83.8,4.7 C 128,-1.5 169,32.3 176,80.2 L 176.07,80.2 z"
style="fill:#eecc33" id="2" />
<path d="M 160.057,82.470048 C 165.43,120.8 141.1,155.9 105.7,160.9 C 70.35,165.89 37.3,138.9 31.9,100.5 C 26.6,62.2 50.9,27 86.3,22 C 121.7,17.1 154.7,44 160.057,82.5 L 160.057,82.5 L 160.057,82.470048 z"
style="fill:#ffc" id="3" />
<path d="M 136.87144,136.97048 L 100.62911,122.64303 L 69.79586,146.56668 L 70.472693,105.14176 L 39.283242,80.335171 L 75.943883,69.060612 L 87.50099,29.805646 L 109.48167,64.262512 L 147.81381,64.80819 L 124.73798,97.378264 L 136.87144,136.97048 z"
style="fill:#eecc33" id="4" />
</svg>